<?xml version="1.0" encoding="utf-8"?>
<!-- Generator: Adobe Illustrator 27.6.1, SVG Export Plug-In . SVG Version: 6.00 Build 0)  -->
<svg version="1.1" id="Layer_1" xmlns="http://www.w3.org/2000/svg" xmlns:xlink="http://www.w3.org/1999/xlink" x="0px" y="0px"
	 viewBox="0 0 256 256" style="enable-background:new 0 0 256 256;" xml:space="preserve">
<style type="text/css">
	.st0{fill:#24CCC1;}
	.st1{fill:#279ACC;}
</style>
<g>
	<g>
		<g>
			<path class="st0" d="M131.1,148.4l-7.7,5c-1.5,0.9-5.6,4.3-7.3,6c-1.2,1.2-2.5,2.8-2.9,5.1c-0.5,2.6,0.6,4,2.6,6
				c1.7,1.7,4.5,3.6,8.5,3.3c3.1-0.3,8.8-3.3,12.1-5.3l88.2-57.2l9.3,9.3c11.1,11.1,9.2,29.7-4,38.3l-56.5,36.7
				c-13.5,8.8-30.9,18.3-50,17.2c-18.4-1.1-30.6-11.1-39.9-20.4c-8.7-8.7-15.6-18.1-15.9-30.8c-0.3-12.1,5.3-20.4,12.1-27.2
				c6.3-6.3,12.5-10.7,18.6-14.5l2.6-1.7L131.1,148.4z"/>
		</g>
	</g>
	<g>
		<g>
			<g>
				<path class="st1" d="M126.2,101.9l7.7-5c1.5-0.9,5.6-4.3,7.3-6c1.2-1.2,2.5-2.8,2.9-5.1c0.5-2.6-0.6-4-2.6-6
					c-1.7-1.7-4.5-3.6-8.5-3.3c-3.1,0.3-8.8,3.3-12.1,5.3L32.7,139l-9.3-9.3c-11.1-11.1-9.2-29.7,4-38.3l56.5-36.7
					c13.5-8.8,30.9-18.3,50-17.2c18.4,1.1,30.6,11.1,39.9,20.4c8.7,8.7,15.6,18.1,15.9,30.8c0.3,12.1-5.3,20.4-12.1,27.2
					c-6.3,6.3-12.5,10.7-18.6,14.5l-2.6,1.7L126.2,101.9z"/>
			</g>
		</g>
	</g>
</g>
</svg>
